<?xml version="1.0" encoding="utf-8"?>
<!-- Generator: Adobe Illustrator 15.0.0, SVG Export Plug-In . SVG Version: 6.00 Build 0)  -->
<!DOCTYPE svg PUBLIC "-//W3C//DTD SVG 1.1//EN" "http://www.w3.org/Graphics/SVG/1.1/DTD/svg11.dtd">
<svg version="1.1" id="Layer_1" xmlns="http://www.w3.org/2000/svg" xmlns:xlink="http://www.w3.org/1999/xlink" x="0px" y="0px"
	 width="300px" height="200px" viewBox="0 0 300 200" enable-background="new 0 0 300 200" xml:space="preserve">
<g>
	<polygon fill="none" points="47.581,0 0,47.58 0,90.008 90.008,0 	"/>
	<polygon fill="none" points="300,200 300,171.845 271.845,200 	"/>
	<polygon fill="none" points="0,0 0,5.155 5.156,0 	"/>
	<polygon fill="none" points="132.434,0 0,132.434 0,174.859 174.86,0 	"/>
	<polygon fill="none" points="229.419,200 300,129.419 300,86.992 186.992,200 	"/>
	<polygon fill="none" points="144.566,200 300,44.565 300,2.14 102.139,200 	"/>
	<polygon fill="none" points="259.714,0 217.287,0 17.288,200 59.714,200 	"/>
	<polygon fill="#77B36F" points="5.156,0 0,5.155 0,47.58 47.581,0 	"/>
	<polygon fill="#77B36F" points="90.008,0 0,90.008 0,132.434 132.434,0 	"/>
	<polygon fill="#77B36F" points="174.86,0 0,174.859 0,200 17.288,200 217.287,0 	"/>
	<polygon fill="#77B36F" points="102.139,200 300,2.14 300,0 259.714,0 59.714,200 	"/>
	<polygon fill="#77B36F" points="186.992,200 300,86.992 300,44.565 144.566,200 	"/>
	<polygon fill="#77B36F" points="271.845,200 300,171.845 300,129.419 229.419,200 	"/>
</g>
</svg>
