<?xml version="1.0" encoding="utf-8"?>
<!-- Generator: Adobe Illustrator 15.0.0, SVG Export Plug-In . SVG Version: 6.00 Build 0)  -->
<!DOCTYPE svg PUBLIC "-//W3C//DTD SVG 1.1//EN" "http://www.w3.org/Graphics/SVG/1.1/DTD/svg11.dtd">
<svg version="1.1" id="Layer_1" xmlns="http://www.w3.org/2000/svg" xmlns:xlink="http://www.w3.org/1999/xlink" x="0px" y="0px"
	 width="1140px" height="300px" viewBox="0 0 1140 300" enable-background="new 0 0 1140 300" xml:space="preserve">
<rect x="229" fill="#CA397C" width="229" height="300"/>
<rect x="0.51" fill="#CC874D" width="228.49" height="300"/>
<rect x="458" fill="#77B36F" width="227" height="300"/>
<rect x="685" fill="#9376D0" width="228" height="300"/>
<rect x="912.32" fill="#D2A502" width="228.679" height="300"/>
<g>
	<circle fill="#FFFFFF" cx="570" cy="150" r="76.001"/>
	<g>
		<path fill="#CA397C" d="M563.616,129.699c-2.175,1.778-11.257,0.731-11.975,1.997c1.858,1.997,5.943,0.475,10.1,0.689
			c4.751,0.245,9.112,0.193,15.695,0c4.713-0.139,9.25,1.271,11.102-0.915c-0.108-1.85-11.238-1.143-12.688-1.595
			c2.582-3.604,19.164-7.044,17.777-9.019c-1.385-1.97-16.861,0.435-22.655,2.093c0.341-7.208,3.782-14.032,6.963-18.327
			c-1.548-0.803-4.122-1.445-6.229-0.62c-3.568,3.621-4.326,13.908-4.917,20.144c-0.021-0.007-0.791-0.014-0.791-0.021
			c0,0.004,0,0.008,0,0.011c0,0.066,0.716,0.467,0.711,0.531l0.815,0.332h-0.046h-0.024c0.01,0,0.386-1.199,0.395-1.287
			c-4.029-1.314-15.482-2.772-19.057-3.161c-0.975-0.108-2.656-0.582-3.241,0.542C546.38,124.541,560.373,127.567,563.616,129.699z"
			/>
		<path fill="#CA397C" d="M599.856,138.081c-4.827-9.432-19.641-11.178-35.352-10.337c-7.253,0.389-13.849,1.319-18.192,3.929
			c-6.348,3.813-9.322,10.826-8.476,21.706c1.001,12.876,11.473,30.473,20.26,37.419c3.164,2.5,8.246,5.681,12.198,5.581
			c6.909-0.175,15.049-10.336,20.051-16.332c5.718-6.851,10.26-16.156,11.578-24.601
			C602.882,149.306,601.967,142.205,599.856,138.081z M589.833,136.089c0.414-1.018,1.243-1.625,2.219-1.625
			c1.539,0,2.749,1.452,3.318,2.694c0.803,1.756,0.647,3.537-0.415,4.764l-0.423,0.491l-0.703,0.01
			c-1.299,0-2.509-0.694-3.324-1.905C589.584,139.145,589.312,137.365,589.833,136.089z M582.075,133.135
			c0.134-0.02,0.268-0.03,0.402-0.03c1.58,0,2.878,1.345,3.39,3.509c0.522,2.204,0.147,5.044-1.901,6.069l-0.334,0.169l-0.377-0.017
			c-2.289-0.1-3.62-2.748-3.753-5.314C579.378,135.104,580.388,133.383,582.075,133.135z M575.517,146.053
			c0.383-0.164,0.772-0.246,1.157-0.246c1.891,0,3.209,1.862,3.354,4.742c0.151,2.975-1.043,5.106-2.973,5.304
			c-0.104,0.011-0.208,0.016-0.311,0.016c-0.001,0-0.001,0-0.001,0c-1.612,0-2.83-1.246-3.254-3.334
			C573.065,150.448,573.415,146.945,575.517,146.053z M569.24,133.186c0.282-0.089,0.566-0.132,0.847-0.132
			c1.773,0,3.024,1.715,3.188,4.372c0.157,2.495-0.651,5.465-2.803,5.732c-0.125,0.015-0.252,0.355-0.374,0.355h-0.001
			c-1.67,0-2.916-1.708-3.256-3.922C566.464,137.13,567.178,133.832,569.24,133.186z M562.285,146.053
			c0.336-0.144-0.373-0.222-0.035-0.239c0.262-0.06-0.25-0.091-0.25-0.091v0.166c2,0.387,3.618,2.13,3.747,4.66
			c0.15,2.975-1.383,5.106-3.314,5.304c-0.03,0.003-0.433,0.001-0.433,0.005v0.046c0,0,0.42-0.024,0.213-0.071
			c-1.395-0.206-2.001-1.404-2.387-3.298C559.4,150.448,560.184,146.945,562.285,146.053z M557.698,133.104
			c0.134,0,0.269,0.011,0.401,0.03c1.253,0.184,2.586,1.319,2.573,3.956c-0.013,2.554-1.213,5.429-3.413,5.732l-0.354,0.047
			l-0.335-0.121c-2.192-0.793-2.235-3.39-2.382-5.67C554.073,135.299,555.99,133.104,557.698,133.104z M544.072,138.758
			c0.254-1.773,1.549-4.266,3.631-4.266c0.607,0,1.494,0.227,2.264,1.291l0.265,0.368l0.009,0.452
			c0.025,1.233-0.28,3.936-1.584,5.266c-0.557,0.568-1.239,1.131-1.971,1.131h-0.001c-0.257,0-0.52-0.299-0.778-0.377
			C544.815,142.305,543.761,140.921,544.072,138.758z M544.093,155.137l-0.841-0.545c-0.486-0.314-1.124-0.966-1.391-2.276
			c-0.332-1.621,0.008-3.779,0.772-4.914l0.599-0.889l1.026,0.315c0.615,0.19,1.697,0.794,2.024,2.71
			c0.251,1.467-0.013,3.989-1.383,5.004L544.093,155.137z M550.847,166.392l-0.183,1.344l-1.353-0.096
			c-1.257-0.09-2.366-0.7-3.12-1.721c-0.969-1.312-1.298-3.185-0.874-5.012l0.304-1.321l1.34,0.222
			C550.002,160.308,551.233,163.573,550.847,166.392z M552.106,155c-0.138,0-0.279,0.014-0.421-0.008
			c-1.67-0.244-2.711-2.119-2.532-4.579c0.17-2.34,1.458-3.906,3.204-3.906c0.228,0,0.459,0.03,0.691,0.085l0.356,0.084l0.275,0.244
			c1.424,1.259,1.734,4.307,1.052,6.111c-0.48,1.266-1.437,1.969-2.624,1.969C552.108,155,552.108,155,552.106,155z M557.186,180
			c-1.21,0-2.26-0.668-3.039-1.586c-0.921-1.084-1.374-3.109-1.211-4.667l0.136-1.747h1.987l0.252,0.508
			c1.528,0.592,3.359,2.3,3.406,5.746l0.021,1.746H557.186z M559.445,168.273l-0.317,0.184l-0.366,0.015
			c-0.035,0.003-0.067,0.009-0.101,0.009l0,0c-2.102,0-3.661-2.011-3.796-4.884c-0.115-2.483,0.964-4.26,2.684-4.422
			c1.595-0.148,2.897,1.057,3.46,3.14C561.595,164.483,561.245,167.225,559.445,168.273z M566.518,189.536l-0.188,0.667
			l-0.637,0.271c-0.329,0.141-0.683,0.212-1.047,0.212l0,0c-1.08,0-2.195-0.655-2.842-1.673c-0.604-0.953-0.7-2.032-0.263-2.965
			l0.37-0.788l0.869-0.043c1.257-0.061,2.403,0.477,3.143,1.455C566.562,187.518,566.786,188.589,566.518,189.536z M567.575,179.412
			c-0.541,1.195-1.484,1.882-2.587,1.882h-0.001c-0.051,0-0.104-0.004-0.154-0.007c-1.667-0.101-2.783-1.746-2.715-4.001
			c0.106-3.556,1.381-4.165,3.26-4.165c0.347,0,0.701,0.062,1.054,0.185l0.358,0.127l0.25,0.283
			C568.308,175.162,568.305,177.799,567.575,179.412z M570.103,169l-0.342-0.219c-2.273-0.525-3.173-2.874-2.89-5.365
			c0.27-2.348,1.527-3.416,3.206-3.416h0.021c1.645,0,2.838,1.072,3.114,3.372c0.302,2.518-0.551,4.628-2.77,5.628H570.103z
			 M571.627,177.288c0.108-3.556,1.382-4.166,3.262-4.166c0.346,0,0.7,0.061,1.051,0.184l0.359,0.127l0.251,0.284
			c1.269,1.447,1.265,3.936,0.534,5.549c-0.541,1.195-1.482,1.734-2.585,1.734c-0.002,0-0.002,0-0.002,0
			c-0.051,0-0.104,0.143-0.155,0.141C572.676,181.039,571.56,179.541,571.627,177.288z M579.18,186.978
			c-0.16,2.109-1.477,3.46-3.704,3.802l-1.066,0.164l-0.46-0.972c-0.463-0.97-0.379-2.115,0.222-3.065
			c0.64-1.012,1.74-1.641,2.873-1.641c0.456,0,0.898,0.099,1.314,0.297l0.896,0.426L579.18,186.978z M580.973,168.445l-0.329-0.226
			c-1.721-1.169-1.955-3.944-1.299-6.082c0.576-1.866,1.772-2.979,3.206-2.979c0.104,0,0.208,0.006,0.312,0.018
			c1.703,0.196,2.753,2.337,2.612,4.79c-0.165,2.869-1.768,5.233-3.897,5.233l0,0c-0.068,0-0.139-0.365-0.207-0.37L580.973,168.445z
			 M587.43,174.72c-0.23,1.29-1.574,4.718-5.096,5.111L580,180.012v-1.617c0-1.312,1.064-2.564,1.678-3.531
			c0.77-1.215,2.265-1.884,3.55-1.884c0.224,0,0.632,0.021,0.859,0.063l1.507,0.26L587.43,174.72z M588.077,156
			c-0.137,0-0.279-0.486-0.421-0.508c-1.669-0.244-2.711-2.369-2.531-4.828c0.169-2.34,1.458-4.032,3.204-4.032
			c0.227,0,0.46-0.032,0.69,0.022l0.357,0.053l0.274,0.229c1.425,1.257,1.736,4.798,1.052,6.603
			c-0.479,1.266-1.436,2.461-2.624,2.461C588.079,156,588.079,156,588.077,156z M594.145,165.863
			c-0.738,1.015-1.812,1.643-3.025,1.772l-1.322,0.139l-0.251-1.305c-0.346-1.794,0.035-3.706,0.996-4.987
			c0.743-0.993,1.772-1.576,2.978-1.689l1.286-0.12l0.266,1.264C595.442,162.716,595.097,164.556,594.145,165.863z M597.354,154.414
			l-0.722,0.706l-0.912-0.435c-0.601-0.286-1.373-0.981-1.642-2.661c-0.214-1.345-0.107-3.751,1.06-4.861l0.781-0.744l0.936,0.536
			c0.92,0.526,1.523,1.579,1.701,2.962C598.745,151.386,598.445,153.347,597.354,154.414z"/>
	</g>
</g>
</svg>
