<?xml version="1.0" encoding="utf-8"?>
<!-- Generator: Adobe Illustrator 15.0.0, SVG Export Plug-In . SVG Version: 6.00 Build 0)  -->
<!DOCTYPE svg PUBLIC "-//W3C//DTD SVG 1.1//EN" "http://www.w3.org/Graphics/SVG/1.1/DTD/svg11.dtd">
<svg version="1.1" id="Layer_1" xmlns="http://www.w3.org/2000/svg" xmlns:xlink="http://www.w3.org/1999/xlink" x="0px" y="0px"
	 width="150px" height="150px" viewBox="26.07 37.147 150 150" enable-background="new 26.07 37.147 150 150" xml:space="preserve">
<g>
	<circle cx="101.07" cy="112.147" r="67.918"/>
	<g>
		<path fill="#FFFFFF" d="M50.964,134.433c0-2.307,0.44-4.661,1.321-7.062c0.879-2.401,2.131-4.673,3.755-6.817
			c1.623-2.145,3.579-4.058,5.869-5.741c2.29-1.682,4.844-2.96,7.665-3.832c-1.453-1.179-2.812-2.418-4.077-3.716
			c-1.265-1.299-2.366-2.627-3.307-3.986c-0.939-1.358-1.679-2.725-2.217-4.1c-0.538-1.376-0.807-2.747-0.807-4.114
			c0-1.743,0.192-3.4,0.575-4.973c0.385-1.571,0.915-3.027,1.59-4.369c0.674-1.342,1.475-2.554,2.396-3.64
			c0.923-1.085,1.914-2.008,2.973-2.768c1.06-0.761,2.166-1.346,3.319-1.756c1.154-0.41,2.311-0.615,3.473-0.615
			c1.537,0,3.02,0.394,4.447,1.178c1.426,0.787,2.695,2.034,3.805,3.743c1.11,1.708,1.999,3.921,2.666,6.638
			c0.667,2.717,0.999,5.998,0.999,9.842c0,2.785-0.098,5.429-0.294,7.932c-0.196,2.503-0.483,4.899-0.859,7.189
			c1.042,0.65,2.098,1.282,3.167,1.897c1.067,0.615,2.148,1.23,3.241,1.845c0.221,0.138,0.5,0.299,0.833,0.487
			c0.333,0.188,0.658,0.389,0.974,0.602c0.316,0.215,0.584,0.428,0.807,0.641c0.222,0.215,0.333,0.407,0.333,0.577
			c0,0.171-0.074,0.338-0.217,0.5c-0.146,0.163-0.317,0.317-0.513,0.462c-0.196,0.145-0.394,0.269-0.589,0.372
			c-0.196,0.103-0.347,0.179-0.449,0.231c-0.291,0.153-0.666,0.23-1.127,0.23c-0.958-0.018-2.081-0.206-3.371-0.564
			c-1.291-0.358-2.696-0.863-4.216-1.513c-0.752,3.162-1.653,6.054-2.703,8.676c-1.051,2.623-2.201,4.977-3.447,7.062
			c-1.248,2.085-2.567,3.9-3.96,5.446c-1.392,1.547-2.802,2.833-4.23,3.858c-1.427,1.025-2.844,1.794-4.255,2.306
			c-1.41,0.513-2.764,0.769-4.062,0.769c-1.35,0-2.602-0.273-3.755-0.82s-2.157-1.363-3.012-2.448
			c-0.854-1.084-1.524-2.431-2.013-4.036C51.207,138.44,50.964,136.568,50.964,134.433z M57.526,136.073
			c0,1.743,0.337,3.062,1.012,3.96c0.674,0.897,1.567,1.346,2.678,1.346c1.128,0,2.405-0.496,3.831-1.487
			c1.427-0.991,2.858-2.524,4.293-4.601c1.436-2.076,2.807-4.712,4.114-7.907s2.414-6.997,3.319-11.405l-0.948-0.589
			c-1.743,0.342-3.405,0.935-4.985,1.781c-1.581,0.847-3.05,1.851-4.408,3.012c-1.359,1.162-2.586,2.439-3.679,3.832
			c-1.093,1.393-2.029,2.798-2.807,4.216c-0.778,1.417-1.375,2.806-1.794,4.165C57.734,133.754,57.526,134.979,57.526,136.073z
			 M65.727,93.424c0,1.367,0.299,2.726,0.897,4.075c0.599,1.35,1.434,2.688,2.512,4.011c1.076,1.325,2.358,2.637,3.845,3.935
			c1.487,1.298,3.128,2.58,4.921,3.844c0.29-2.374,0.521-4.873,0.691-7.496c0.171-2.623,0.257-5.412,0.257-8.368
			c0-2.016-0.127-3.721-0.385-5.114c-0.256-1.393-0.602-2.524-1.039-3.396c-0.435-0.872-0.948-1.5-1.537-1.884
			s-1.209-0.576-1.858-0.576c-0.632,0-1.274,0.153-1.922,0.461c-0.65,0.307-1.282,0.73-1.897,1.269
			c-0.615,0.538-1.195,1.166-1.742,1.884c-0.548,0.717-1.022,1.481-1.423,2.293c-0.401,0.812-0.722,1.649-0.96,2.511
			C65.846,91.737,65.727,92.587,65.727,93.424z"/>
		<path fill="#FFFFFF" d="M116.321,121.592c-0.394,0.547-0.917,1.188-1.575,1.921c-0.659,0.736-1.397,1.436-2.218,2.102
			c-0.82,0.667-1.7,1.23-2.64,1.691c-0.939,0.462-1.879,0.692-2.819,0.692c-1.127,0-2.067-0.363-2.819-1.089
			c-0.752-0.726-1.401-1.781-1.947-3.165c-0.411,0.478-0.916,0.966-1.512,1.461c-0.599,0.496-1.253,0.944-1.961,1.345
			c-0.709,0.402-1.448,0.73-2.217,0.987c-0.77,0.256-1.539,0.384-2.307,0.384c-0.82,0-1.618-0.167-2.397-0.5
			c-0.778-0.333-1.465-0.811-2.063-1.435c-0.599-0.623-1.076-1.384-1.435-2.281c-0.358-0.897-0.537-1.909-0.537-3.037
			c0-1.282,0.179-2.597,0.537-3.947c0.359-1.35,0.854-2.67,1.487-3.959c0.633-1.29,1.379-2.507,2.243-3.652
			c0.863-1.145,1.807-2.144,2.833-2.999c1.026-0.854,2.106-1.533,3.241-2.038c1.137-0.503,2.294-0.756,3.473-0.756
			c0.394,0,0.701,0.077,0.923,0.23c0.222,0.154,0.405,0.329,0.552,0.525c0.145,0.196,0.285,0.389,0.422,0.577
			c0.136,0.188,0.307,0.325,0.512,0.411c0.206,0.085,0.415,0.14,0.628,0.167c0.214,0.025,0.431,0.038,0.654,0.038
			c0.187,0,0.379-0.003,0.575-0.013c0.196-0.008,0.389-0.013,0.577-0.013c0.256,0,0.496,0.025,0.717,0.077
			c0.222,0.051,0.418,0.163,0.59,0.333c0.17,0.171,0.304,0.409,0.397,0.717c0.093,0.308,0.141,0.727,0.141,1.256
			c0,0.82-0.084,1.73-0.256,2.73c-0.171,0.999-0.359,2.024-0.564,3.075c-0.205,1.051-0.393,2.101-0.564,3.152
			c-0.17,1.05-0.256,2.046-0.256,2.985c0,0.803,0.072,1.431,0.217,1.884c0.146,0.452,0.457,0.679,0.936,0.679
			c0.358,0,0.734-0.089,1.127-0.269c0.393-0.18,0.791-0.414,1.191-0.705c0.401-0.291,0.803-0.619,1.206-0.987
			c0.401-0.367,0.781-0.747,1.14-1.14c0.836-0.923,1.682-1.965,2.538-3.127L116.321,121.592z M94.433,119.567
			c0,0.427,0.029,0.842,0.089,1.244c0.06,0.401,0.167,0.76,0.32,1.076c0.153,0.316,0.359,0.573,0.615,0.769
			c0.256,0.197,0.581,0.295,0.974,0.295c0.632,0,1.205-0.273,1.718-0.821c0.512-0.547,0.956-1.205,1.333-1.973
			c0.375-0.769,0.679-1.563,0.909-2.384c0.231-0.82,0.38-1.503,0.449-2.051l1.563-7.534c-0.701,0-1.384,0.175-2.05,0.525
			c-0.666,0.35-1.295,0.824-1.884,1.422c-0.59,0.599-1.132,1.282-1.627,2.051c-0.497,0.769-0.923,1.576-1.282,2.421
			c-0.358,0.846-0.636,1.696-0.833,2.55C94.531,118.012,94.433,118.815,94.433,119.567z"/>
		<path fill="#FFFFFF" d="M123.959,123.078c0-0.221,0.017-0.538,0.051-0.948c0.034-0.41,0.085-0.879,0.154-1.41
			c0.068-0.529,0.146-1.089,0.23-1.679c0.086-0.59,0.17-1.175,0.257-1.755c0.188-1.367,0.418-2.836,0.691-4.409h-0.384
			c-0.205,0.257-0.44,0.641-0.705,1.153c-0.265,0.513-0.637,1.265-1.116,2.256c-0.478,0.991-1.089,2.276-1.833,3.857
			c-0.743,1.581-1.705,3.559-2.883,5.933c-0.342,0.7-0.738,1.175-1.191,1.423c-0.453,0.248-0.953,0.372-1.5,0.372
			c-0.701,0-1.265-0.149-1.692-0.449c-0.427-0.298-0.756-0.7-0.987-1.205s-0.384-1.076-0.461-1.717
			c-0.078-0.641-0.116-1.303-0.116-1.986c0-0.701,0.042-1.529,0.128-2.487c0.084-0.957,0.196-1.964,0.332-3.024
			c0.137-1.059,0.295-2.14,0.474-3.242c0.18-1.102,0.368-2.157,0.564-3.165c0.196-1.008,0.397-1.931,0.603-2.768
			c0.205-0.837,0.393-1.521,0.564-2.051c0.169-0.547,0.333-0.982,0.486-1.307c0.153-0.324,0.328-0.577,0.525-0.756
			c0.196-0.179,0.431-0.299,0.706-0.359c0.273-0.06,0.623-0.089,1.05-0.089c0.649,0,1.157,0.022,1.524,0.064
			c0.367,0.043,0.641,0.145,0.82,0.307c0.18,0.162,0.287,0.397,0.321,0.705c0.035,0.308,0.051,0.727,0.051,1.255
			c0,0.292-0.012,0.625-0.038,1c-0.025,0.376-0.064,0.778-0.115,1.206c-0.052,0.427-0.107,0.867-0.167,1.32
			c-0.061,0.453-0.125,0.893-0.193,1.32c-0.154,1.008-0.316,2.05-0.487,3.126l0.282,0.308c0.034-0.052,0.217-0.376,0.551-0.974
			s0.744-1.315,1.23-2.153c0.487-0.836,1.013-1.713,1.576-2.627c0.564-0.914,1.102-1.721,1.614-2.422
			c0.496-0.7,1.021-1.281,1.576-1.743c0.555-0.461,1.218-0.691,1.986-0.691c0.718,0,1.333,0.209,1.845,0.628
			c0.512,0.418,0.769,1.012,0.769,1.781c0,0.667-0.042,1.299-0.127,1.896c-0.086,0.599-0.191,1.18-0.32,1.743
			c-0.127,0.564-0.261,1.115-0.397,1.653s-0.264,1.09-0.384,1.653c-0.086,0.394-0.138,0.642-0.154,0.744
			c-0.017,0.103-0.026,0.171-0.026,0.205l0.282,0.308c0.034-0.051,0.231-0.371,0.591-0.96c0.358-0.59,0.798-1.303,1.32-2.141
			c0.521-0.836,1.077-1.717,1.666-2.64c0.59-0.922,1.141-1.733,1.654-2.434c0.495-0.684,0.991-1.261,1.486-1.73
			c0.496-0.47,1.103-0.705,1.82-0.705c0.802,0,1.481,0.209,2.038,0.628c0.554,0.418,0.833,1.012,0.833,1.781
			c0,1.179-0.061,2.298-0.18,3.357c-0.12,1.06-0.257,2.102-0.411,3.127c-0.153,1.025-0.29,2.063-0.41,3.114
			c-0.121,1.051-0.18,2.165-0.18,3.344c0,0.923,0.12,1.675,0.359,2.256c0.238,0.581,0.529,0.871,0.871,0.871
			c0.358,0,0.734-0.077,1.127-0.231c0.394-0.153,0.794-0.35,1.205-0.589s0.811-0.517,1.204-0.833
			c0.394-0.316,0.77-0.645,1.128-0.987c0.837-0.786,1.666-1.673,2.486-2.665c0,0,2.023,0.743,2.566,2.188
			c0.541,1.445-2.131,3.86-2.131,3.86c-0.752,0.598-1.5,1.217-2.243,1.858c-0.743,0.64-1.529,1.222-2.358,1.743
			c-0.829,0.521-1.739,0.948-2.729,1.281c-0.991,0.333-2.111,0.5-3.357,0.5c-0.615,0-1.132-0.2-1.551-0.602
			c-0.417-0.401-0.756-0.961-1.012-1.679c-0.256-0.717-0.439-1.564-0.551-2.538c-0.112-0.974-0.167-2.033-0.167-3.178
			c0-1.077,0.038-2.217,0.116-3.421c0.077-1.205,0.183-2.422,0.32-3.653h-0.385l-5.204,13.251c-0.444,0.717-0.939,1.2-1.486,1.448
			c-0.547,0.247-1.179,0.371-1.896,0.371c-0.548,0-0.982-0.149-1.308-0.448c-0.325-0.299-0.576-0.684-0.756-1.153
			c-0.18-0.471-0.3-0.987-0.359-1.551C123.989,124.156,123.959,123.609,123.959,123.078z"/>
	</g>
</g>
</svg>
